# xmcd
#
# Track frame offsets: 
#        150
#        14860
#        54763
#        76888
#        103438
#        133888
#        155263
#        171763
#        189313
#        206825
#        221265
#        253288
#
# Disc length: 3647 seconds
#
# Revision: 0
# Processed by: cddbd v1.5PL3 Copyright (c) Steve Scherf et al.
# Submitted via: ExactAudioCopy v0.95a4
#
DISCID=ab0e3d0c
DTITLE=Keefer Madness - raw
DYEAR=1994
DGENRE=Blues
TTITLE0=Kickin' It Out
TTITLE1=Dos Gusanos Rojo/Tastes Like Chicken
TTITLE2=I Miss You The Most
TTITLE3=Monetary Man
TTITLE4=What We All Have To Do
TTITLE5=You Be The Judge
TTITLE6=What Love Should Be
TTITLE7=You and Me
TTITLE8=Go Your Own Way
TTITLE9=I'll Sing the Blues To You
TTITLE10=Can't Get Addicted
TTITLE11=Oh Well
EXTD=
EXTT0=
EXTT1=
EXTT2=
EXTT3=
EXTT4=
EXTT5=
EXTT6=
EXTT7=
EXTT8=
EXTT9=
EXTT10=
EXTT11=
PLAYORDER=
